<svg width="1132" height="837" viewBox="0 0 1132 837" fill="none" xmlns="http://www.w3.org/2000/svg">
<path d="M250.114 0L490.999 548.873H9.23005L250.114 0Z" fill="#EF41A0"/>
<path d="M250.513 309.469L355.77 549.268H145.255L250.513 309.469Z" fill="#5EC0EE"/>
<path d="M423.061 0H575.286V548.676H423.061V0Z" fill="#FD7313"/>
<path d="M556.955 71.4463C556.955 103.057 531.086 128.682 499.174 128.682C467.262 128.682 441.392 103.057 441.392 71.4463C441.392 39.8357 467.262 14.2103 499.174 14.2103C531.086 14.2103 556.955 39.8357 556.955 71.4463Z" fill="#6D0494"/>
<path d="M556.955 176.839C556.955 274.505 636.884 353.679 735.481 353.679V0C636.884 0 556.955 79.1737 556.955 176.839Z" fill="#6FDF9A"/>
<path d="M914.007 371.837C914.007 274.171 834.078 194.997 735.481 194.997V548.676C834.078 548.676 914.007 469.502 914.007 371.837Z" fill="#466743"/>
<path d="M767.361 176.839C767.361 274.505 847.289 353.679 945.886 353.679V0C847.289 0 767.361 79.1737 767.361 176.839Z" fill="#EEDA54"/>
<path d="M1124.41 371.837C1124.41 274.171 1044.48 194.997 945.886 194.997V548.676C1044.48 548.676 1124.41 469.502 1124.41 371.837Z" fill="#FD7313"/>
<path d="M60.8517 709.726L51.7214 685.625H17.6485L8.51822 709.726H0L28.7681 634.948H40.7038L69.523 709.726H60.8517ZM20.3519 678.552H49.018L34.685 640.809L20.3519 678.552Z" fill="#353048"/>
<path d="M79.5045 654.906H86.4925L87.2066 662.232H87.7167C89.6889 659.74 92.2223 657.803 95.3168 656.422C98.4452 655.041 101.693 654.35 105.059 654.35C106.793 654.35 108.494 654.502 110.16 654.805V662.485C108.63 662.215 106.793 662.081 104.651 662.081C101.659 662.081 98.5982 662.721 95.4698 664.001C92.3753 665.281 89.842 667.15 87.8697 669.609V709.726H79.5045V654.906Z" fill="#353048"/>
<path d="M144.929 703.562C146.867 703.562 149.332 703.259 152.325 702.653V709.625C149.162 710.332 146.085 710.686 143.092 710.686C136.869 710.686 132.126 709.137 128.861 706.038C125.597 702.905 123.965 698.139 123.965 691.739V661.727H113.049V654.906H123.965L125.393 634.948H132.33V654.906H151.457V661.727H132.33V690.375C132.33 695.091 133.367 698.476 135.441 700.531C137.515 702.552 140.678 703.562 144.929 703.562Z" fill="#353048"/>
<path d="M161.794 709.726V654.906H170.21V709.726H161.794ZM166.027 643.083C164.157 643.083 162.712 642.628 161.692 641.719C160.705 640.809 160.212 639.546 160.212 637.929C160.212 636.279 160.705 634.999 161.692 634.089C162.712 633.18 164.157 632.725 166.027 632.725C167.898 632.725 169.326 633.18 170.312 634.089C171.332 634.999 171.842 636.279 171.842 637.929C171.842 639.546 171.332 640.809 170.312 641.719C169.326 642.628 167.898 643.083 166.027 643.083Z" fill="#353048"/>
<path d="M190.523 647.933C190.523 641.096 192.325 635.908 195.93 632.372C199.534 628.835 204.788 627.066 211.691 627.066C214.377 627.066 217.013 627.302 219.597 627.774V634.746C217.183 634.241 214.819 633.988 212.507 633.988C207.848 633.988 204.414 635.049 202.203 637.171C199.993 639.26 198.888 642.679 198.888 647.428V654.906H217.965V661.727H198.888V709.726H190.523V661.727H179.607V654.906H190.523V647.933ZM230.359 632.725C232.23 632.725 233.658 633.18 234.644 634.089C235.664 634.999 236.174 636.279 236.174 637.929C236.174 639.546 235.664 640.809 234.644 641.719C233.658 642.628 232.23 643.083 230.359 643.083C228.489 643.083 227.044 642.628 226.024 641.719C225.038 640.809 224.545 639.546 224.545 637.929C224.545 636.279 225.038 634.999 226.024 634.089C227.044 633.18 228.489 632.725 230.359 632.725ZM226.126 709.726V654.906H234.542V709.726H226.126Z" fill="#353048"/>
<path d="M274.007 710.686C265.574 710.686 259.147 708.362 254.727 703.714C250.306 699.032 248.096 691.907 248.096 682.341C248.096 672.775 250.459 665.668 255.186 661.02C259.946 656.371 266.9 654.047 276.048 654.047C280.604 654.047 284.736 654.569 288.442 655.613V662.636C284.498 661.592 280.655 661.07 276.915 661.07C270.046 661.07 264.962 662.737 261.664 666.072C258.399 669.373 256.767 674.729 256.767 682.139C256.767 689.684 258.297 695.158 261.358 698.56C264.418 701.962 269.026 703.663 275.181 703.663C279.023 703.663 283.444 702.855 288.442 701.238V708.261C283.92 709.878 279.108 710.686 274.007 710.686Z" fill="#353048"/>
<path d="M299.474 709.726V654.906H307.89V709.726H299.474ZM303.707 643.083C301.837 643.083 300.392 642.628 299.372 641.719C298.385 640.809 297.892 639.546 297.892 637.929C297.892 636.279 298.385 634.999 299.372 634.089C300.392 633.18 301.837 632.725 303.707 632.725C305.577 632.725 307.006 633.18 307.992 634.089C309.012 634.999 309.522 636.279 309.522 637.929C309.522 639.546 309.012 640.809 307.992 641.719C307.006 642.628 305.577 643.083 303.707 643.083Z" fill="#353048"/>
<path d="M342.077 654.047C347.143 654.047 351.309 654.687 354.573 655.967C357.838 657.213 360.286 659.302 361.919 662.232C363.585 665.163 364.418 669.12 364.418 674.106V709.726H357.43L356.818 703.511H356.257C354.352 705.735 351.87 707.486 348.81 708.766C345.749 710.012 342.502 710.636 339.067 710.636C335.395 710.636 332.232 710.029 329.58 708.817C326.961 707.604 324.955 705.869 323.561 703.613C322.167 701.356 321.47 698.695 321.47 695.63C321.47 690.846 323.136 687.141 326.468 684.514C329.801 681.853 335.123 680.169 342.434 679.461L356.206 677.996V673.752C356.206 670.417 355.645 667.807 354.522 665.921C353.434 664.034 351.785 662.704 349.575 661.929C347.398 661.154 344.559 660.767 341.057 660.767C338.608 660.767 335.99 660.986 333.201 661.424C330.413 661.828 327.71 662.468 325.091 663.344V656.624C327.506 655.782 330.226 655.142 333.252 654.704C336.279 654.266 339.22 654.047 342.077 654.047ZM341.108 704.269C343.93 704.269 346.633 703.73 349.218 702.653C351.836 701.541 354.165 699.891 356.206 697.701V683.503L342.995 684.918C338.37 685.457 335.038 686.535 332.997 688.152C330.957 689.735 329.937 691.992 329.937 694.922C329.937 697.92 330.872 700.227 332.742 701.844C334.613 703.461 337.401 704.269 341.108 704.269Z" fill="#353048"/>
<path d="M380.368 709.726V628.077H388.733V709.726H380.368Z" fill="#353048"/>
<path d="M432.991 709.726V634.948H441.509V709.726H432.991Z" fill="#353048"/>
<path d="M459.071 654.906H466.11L466.722 661.171H467.283C469.765 658.881 472.622 657.129 475.852 655.916C479.083 654.67 482.483 654.047 486.054 654.047C492.072 654.047 496.765 655.698 500.132 658.999C503.532 662.266 505.232 667.436 505.232 674.51V709.726H496.867V674.813C496.867 670.064 495.762 666.645 493.552 664.556C491.375 662.468 488.213 661.424 484.064 661.424C481.106 661.424 478.13 662.013 475.138 663.192C472.146 664.371 469.578 666.173 467.436 668.598V709.726H459.071V654.906Z" fill="#353048"/>
<path d="M545.416 703.562C547.354 703.562 549.819 703.259 552.812 702.653V709.625C549.649 710.332 546.572 710.686 543.58 710.686C537.357 710.686 532.613 709.137 529.348 706.038C526.084 702.905 524.452 698.139 524.452 691.739V661.727H513.536V654.906H524.452L525.88 634.948H532.817V654.906H551.945V661.727H532.817V690.375C532.817 695.091 533.854 698.476 535.928 700.531C538.003 702.552 541.165 703.562 545.416 703.562Z" fill="#353048"/>
<path d="M604.792 685.019H566.791C567.029 691.689 568.797 696.522 572.096 699.52C575.394 702.484 580.393 703.966 587.092 703.966C591.649 703.966 596.613 703.175 601.986 701.592V708.311C596.613 709.895 591.326 710.686 586.123 710.686C576.873 710.686 569.919 708.396 565.261 703.815C560.636 699.2 558.324 692.025 558.324 682.291C558.324 676.127 559.259 670.939 561.129 666.729C563.034 662.518 565.754 659.352 569.29 657.23C572.827 655.108 577.078 654.047 582.042 654.047C589.387 654.047 595.015 656.455 598.926 661.272C602.836 666.055 604.792 673.129 604.792 682.493V685.019ZM581.991 660.009C577.129 660.009 573.405 661.558 570.821 664.657C568.27 667.756 566.927 672.674 566.791 679.411H596.834C596.698 672.674 595.389 667.756 592.907 664.657C590.424 661.558 586.786 660.009 581.991 660.009Z" fill="#353048"/>
<path d="M617.472 709.726V628.077H625.838V709.726H617.472Z" fill="#353048"/>
<path d="M642.478 709.726V628.077H650.843V709.726H642.478Z" fill="#353048"/>
<path d="M667.483 709.726V654.906H675.9V709.726H667.483ZM671.717 643.083C669.847 643.083 668.402 642.628 667.381 641.719C666.395 640.809 665.902 639.546 665.902 637.929C665.902 636.279 666.395 634.999 667.381 634.089C668.402 633.18 669.847 632.725 671.717 632.725C673.587 632.725 675.016 633.18 676.002 634.089C677.022 634.999 677.532 636.279 677.532 637.929C677.532 639.546 677.022 640.809 676.002 641.719C675.016 642.628 673.587 643.083 671.717 643.083Z" fill="#353048"/>
<path d="M710.75 732.968C707.927 732.968 704.935 732.732 701.772 732.261C698.644 731.823 695.754 731.183 693.101 730.341V723.419C699.154 725.271 704.884 726.198 710.291 726.198C714.711 726.198 718.299 725.608 721.053 724.429C723.808 723.284 725.848 721.414 727.174 718.821C728.534 716.227 729.214 712.758 729.214 708.412V703.613H728.755C726.749 705.768 724.318 707.453 721.461 708.665C718.639 709.844 715.493 710.434 712.025 710.434C707.706 710.434 703.847 709.507 700.446 707.655C697.046 705.768 694.359 702.804 692.387 698.762C690.415 694.72 689.429 689.6 689.429 683.402C689.429 673.668 691.911 666.342 696.876 661.424C701.84 656.506 709.219 654.047 719.013 654.047C722.175 654.047 725.355 654.283 728.551 654.754C731.748 655.192 734.757 655.832 737.58 656.674V707.099C737.58 713.196 736.593 718.147 734.621 721.953C732.649 725.76 729.69 728.539 725.746 730.29C721.801 732.075 716.803 732.968 710.75 732.968ZM714.473 703.36C717.33 703.36 720.05 702.838 722.634 701.794C725.219 700.716 727.412 699.082 729.214 696.893V662.081C725.916 661.205 722.26 660.767 718.248 660.767C711.481 660.767 706.397 662.535 702.997 666.072C699.63 669.609 697.947 675.133 697.947 682.644C697.947 690.055 699.409 695.36 702.333 698.56C705.258 701.76 709.304 703.36 714.473 703.36Z" fill="#353048"/>
<path d="M797.663 685.019H759.662C759.901 691.689 761.669 696.522 764.967 699.52C768.266 702.484 773.264 703.966 779.963 703.966C784.52 703.966 789.485 703.175 794.858 701.592V708.311C789.485 709.895 784.197 710.686 778.994 710.686C769.745 710.686 762.791 708.396 758.132 703.815C753.508 699.2 751.195 692.025 751.195 682.291C751.195 676.127 752.13 670.939 754.001 666.729C755.905 662.518 758.625 659.352 762.162 657.23C765.698 655.108 769.949 654.047 774.914 654.047C782.259 654.047 787.887 656.455 791.797 661.272C795.708 666.055 797.663 673.129 797.663 682.493V685.019ZM774.863 660.009C770 660.009 766.276 661.558 763.692 664.657C761.142 667.756 759.799 672.674 759.662 679.411H789.706C789.57 672.674 788.261 667.756 785.778 664.657C783.296 661.558 779.657 660.009 774.863 660.009Z" fill="#353048"/>
<path d="M810.344 654.906H817.383L817.995 661.171H818.556C821.038 658.881 823.895 657.129 827.125 655.916C830.356 654.67 833.756 654.047 837.327 654.047C843.346 654.047 848.038 655.698 851.405 658.999C854.805 662.266 856.505 667.436 856.505 674.51V709.726H848.14V674.813C848.14 670.064 847.035 666.645 844.825 664.556C842.648 662.468 839.486 661.424 835.337 661.424C832.379 661.424 829.404 662.013 826.411 663.192C823.419 664.371 820.851 666.173 818.709 668.598V709.726H810.344V654.906Z" fill="#353048"/>
<path d="M895.261 710.686C886.827 710.686 880.401 708.362 875.98 703.714C871.559 699.032 869.349 691.907 869.349 682.341C869.349 672.775 871.712 665.668 876.439 661.02C881.2 656.371 888.154 654.047 897.301 654.047C901.858 654.047 905.989 654.569 909.696 655.613V662.636C905.751 661.592 901.909 661.07 898.168 661.07C891.299 661.07 886.215 662.737 882.917 666.072C879.652 669.373 878.02 674.729 878.02 682.139C878.02 689.684 879.55 695.158 882.611 698.56C885.671 701.962 890.279 703.663 896.434 703.663C900.276 703.663 904.697 702.855 909.696 701.238V708.261C905.173 709.878 900.361 710.686 895.261 710.686Z" fill="#353048"/>
<path d="M963.038 685.019H925.038C925.276 691.689 927.044 696.522 930.343 699.52C933.641 702.484 938.64 703.966 945.339 703.966C949.895 703.966 954.86 703.175 960.233 701.592V708.311C954.86 709.895 949.572 710.686 944.37 710.686C935.12 710.686 928.166 708.396 923.508 703.815C918.883 699.2 916.571 692.025 916.571 682.291C916.571 676.127 917.506 670.939 919.376 666.729C921.28 662.518 924.001 659.352 927.537 657.23C931.074 655.108 935.324 654.047 940.289 654.047C947.634 654.047 953.262 656.455 957.172 661.272C961.083 666.055 963.038 673.129 963.038 682.493V685.019ZM940.238 660.009C935.375 660.009 931.652 661.558 929.067 664.657C926.517 667.756 925.174 672.674 925.038 679.411H955.081C954.945 672.674 953.636 667.756 951.154 664.657C948.671 661.558 945.033 660.009 940.238 660.009Z" fill="#353048"/>
<path d="M1028.64 633.988C1023.74 633.988 1020.15 635.049 1017.87 637.171C1015.63 639.294 1014.51 642.797 1014.51 647.681V654.906H1033.58V661.727H1014.51V709.726H1006.14V661.727H995.226V654.906H1006.14V648.186C1006.14 641.247 1007.96 635.993 1011.6 632.422C1015.27 628.852 1020.68 627.066 1027.82 627.066C1030.4 627.066 1033.07 627.285 1035.83 627.723V634.645C1033.18 634.207 1030.78 633.988 1028.64 633.988Z" fill="#353048"/>
<path d="M1062.76 710.686C1054.9 710.686 1048.76 708.345 1044.34 703.663C1039.92 698.981 1037.71 691.874 1037.71 682.341C1037.71 672.876 1039.92 665.803 1044.34 661.121C1048.76 656.405 1054.9 654.047 1062.76 654.047C1070.68 654.047 1076.82 656.388 1081.17 661.07C1085.56 665.718 1087.75 672.809 1087.75 682.341C1087.75 688.674 1086.73 693.962 1084.69 698.206C1082.65 702.417 1079.76 705.549 1076.02 707.604C1072.28 709.659 1067.86 710.686 1062.76 710.686ZM1062.76 703.966C1068.06 703.966 1072.13 702.282 1074.95 698.914C1077.8 695.545 1079.23 690.055 1079.23 682.442C1079.23 674.729 1077.82 669.188 1075 665.819C1072.18 662.451 1068.1 660.767 1062.76 660.767C1057.42 660.767 1053.32 662.451 1050.46 665.819C1047.64 669.154 1046.23 674.628 1046.23 682.24C1046.23 689.954 1047.64 695.512 1050.46 698.914C1053.32 702.282 1057.42 703.966 1062.76 703.966Z" fill="#353048"/>
<path d="M1101.34 654.906H1108.33L1109.05 662.232H1109.56C1111.53 659.74 1114.06 657.803 1117.16 656.422C1120.29 655.041 1123.53 654.35 1126.9 654.35C1128.63 654.35 1130.33 654.502 1132 654.805V662.485C1130.47 662.215 1128.63 662.081 1126.49 662.081C1123.5 662.081 1120.44 662.721 1117.31 664.001C1114.22 665.281 1111.68 667.15 1109.71 669.609V709.726H1101.34V654.906Z" fill="#353048"/>
<path d="M23.7694 837C20.4369 837 17.0194 836.731 13.5169 836.192C10.0484 835.653 6.78398 834.861 3.72354 833.817V826.592C7.02201 827.703 10.4055 828.529 13.874 829.068C17.3425 829.606 20.658 829.876 23.8204 829.876C36.9463 829.876 43.5093 825.295 43.5093 816.133C43.5093 813.607 42.9652 811.518 41.877 809.868C40.8229 808.184 39.1396 806.786 36.8273 805.674C34.515 804.529 31.3695 803.518 27.3909 802.643L23.0043 801.683C15.9993 800.133 10.8136 797.708 7.44707 794.407C4.11459 791.072 2.44835 786.693 2.44835 781.27C2.44835 776.925 3.5025 773.186 5.61081 770.054C7.71911 766.921 10.8646 764.513 15.0472 762.828C19.2638 761.144 24.4665 760.302 30.6554 760.302C37.0823 760.302 43.0842 761.128 48.661 762.778V770.003C42.9822 768.285 37.0483 767.426 30.8594 767.426C24.1605 767.426 19.1788 768.588 15.9143 770.913C12.6498 773.203 11.0176 776.504 11.0176 780.816C11.0176 783.308 11.4937 785.38 12.4458 787.03C13.3979 788.681 14.9451 790.079 17.0875 791.224C19.2298 792.369 22.1372 793.346 25.8097 794.154L30.1963 795.165C37.8134 796.815 43.3562 799.274 46.8247 802.542C50.3272 805.809 52.0785 810.171 52.0785 815.628C52.0785 820.141 50.9733 823.998 48.763 827.198C46.5527 830.398 43.3222 832.84 39.0716 834.524C34.855 836.175 29.7543 837 23.7694 837Z" fill="#353048"/>
<path d="M82.9236 836.949C77.0067 836.949 72.3481 835.333 68.9476 832.099C65.5811 828.865 63.8978 823.745 63.8978 816.739V781.22H72.263V816.335C72.263 821.051 73.3512 824.453 75.5275 826.541C77.7038 828.596 80.7813 829.623 84.7598 829.623C87.7183 829.623 90.6597 829.017 93.5841 827.804C96.5425 826.558 99.0589 824.739 101.133 822.348V781.22H109.498V836.04H102.51L101.898 829.977H101.388C98.9059 832.267 96.0835 834.002 92.921 835.181C89.7586 836.36 86.4261 836.949 82.9236 836.949Z" fill="#353048"/>
<path d="M140.614 837C134.494 837 128.968 836.242 124.037 834.726V828.108C126.893 828.95 129.648 829.556 132.3 829.926C134.987 830.297 137.775 830.482 140.665 830.482C145.766 830.482 149.473 829.707 151.785 828.158C154.131 826.609 155.305 824.335 155.305 821.337C155.305 818.878 154.624 817.009 153.264 815.729C151.938 814.415 149.592 813.455 146.225 812.849L137.758 811.283C132.589 810.306 128.832 808.605 126.485 806.179C124.173 803.721 123.017 800.436 123.017 796.327C123.017 793.161 123.85 790.382 125.516 787.99C127.183 785.599 129.733 783.729 133.167 782.382C136.602 781.035 140.921 780.361 146.123 780.361C151.224 780.361 155.934 780.967 160.252 782.18V788.799C157.872 788.125 155.56 787.637 153.315 787.333C151.071 787.03 148.725 786.879 146.276 786.879C140.869 786.879 136.976 787.721 134.596 789.405C132.249 791.055 131.076 793.295 131.076 796.125C131.076 798.348 131.722 800.15 133.014 801.531C134.341 802.912 136.619 803.923 139.849 804.563L148.266 806.078C153.536 807.055 157.362 808.723 159.742 811.08C162.157 813.405 163.364 816.655 163.364 820.832C163.364 825.918 161.425 829.893 157.549 832.756C153.706 835.585 148.062 837 140.614 837Z" fill="#353048"/>
<path d="M199.124 829.876C201.062 829.876 203.527 829.573 206.52 828.966V835.939C203.357 836.646 200.28 837 197.288 837C191.065 837 186.321 835.451 183.057 832.352C179.792 829.219 178.16 824.453 178.16 818.053V788.041H167.244V781.22H178.16L179.588 761.262H186.525V781.22H205.653V788.041H186.525V816.689C186.525 821.404 187.562 824.79 189.636 826.844C191.711 828.865 194.873 829.876 199.124 829.876Z" fill="#353048"/>
<path d="M233.387 780.361C238.454 780.361 242.62 781.001 245.884 782.281C249.148 783.527 251.597 785.615 253.229 788.546C254.895 791.476 255.728 795.434 255.728 800.419V836.04H248.74L248.128 829.825H247.567C245.663 832.049 243.181 833.8 240.12 835.08C237.06 836.326 233.812 836.949 230.378 836.949C226.705 836.949 223.543 836.343 220.89 835.131C218.272 833.918 216.266 832.183 214.872 829.926C213.477 827.67 212.78 825.009 212.78 821.943C212.78 817.16 214.447 813.455 217.779 810.828C221.111 808.167 226.433 806.483 233.744 805.775L247.516 804.31V800.066C247.516 796.731 246.955 794.121 245.833 792.234C244.745 790.348 243.096 789.018 240.885 788.243C238.709 787.468 235.87 787.081 232.367 787.081C229.919 787.081 227.3 787.3 224.512 787.738C221.724 788.142 219.02 788.782 216.402 789.658V782.938C218.816 782.096 221.537 781.456 224.563 781.018C227.589 780.58 230.531 780.361 233.387 780.361ZM232.418 830.583C235.24 830.583 237.944 830.044 240.528 828.966C243.147 827.855 245.476 826.204 247.516 824.015V809.817L234.305 811.232C229.681 811.771 226.348 812.849 224.308 814.466C222.268 816.049 221.247 818.306 221.247 821.236C221.247 824.234 222.183 826.541 224.053 828.158C225.923 829.775 228.712 830.583 232.418 830.583Z" fill="#353048"/>
<path d="M271.679 836.04V781.22H280.095V836.04H271.679ZM275.912 769.397C274.042 769.397 272.597 768.942 271.577 768.033C270.59 767.123 270.097 765.86 270.097 764.243C270.097 762.593 270.59 761.313 271.577 760.403C272.597 759.494 274.042 759.039 275.912 759.039C277.782 759.039 279.211 759.494 280.197 760.403C281.217 761.313 281.727 762.593 281.727 764.243C281.727 765.86 281.217 767.123 280.197 768.033C279.211 768.942 277.782 769.397 275.912 769.397Z" fill="#353048"/>
<path d="M296.684 781.22H303.723L304.335 787.485H304.896C307.379 785.195 310.235 783.443 313.466 782.23C316.696 780.984 320.096 780.361 323.667 780.361C329.686 780.361 334.379 782.011 337.745 785.312C341.146 788.58 342.846 793.75 342.846 800.824V836.04H334.481V801.127C334.481 796.378 333.375 792.959 331.165 790.87C328.989 788.782 325.826 787.738 321.678 787.738C318.719 787.738 315.744 788.327 312.751 789.506C309.759 790.685 307.192 792.487 305.049 794.912V836.04H296.684V781.22Z" fill="#353048"/>
<path d="M376.347 780.361C381.414 780.361 385.58 781.001 388.844 782.281C392.108 783.527 394.557 785.615 396.189 788.546C397.855 791.476 398.688 795.434 398.688 800.419V836.04H391.7L391.088 829.825H390.527C388.623 832.049 386.141 833.8 383.08 835.08C380.02 836.326 376.772 836.949 373.338 836.949C369.665 836.949 366.503 836.343 363.85 835.131C361.232 833.918 359.226 832.183 357.832 829.926C356.437 827.67 355.74 825.009 355.74 821.943C355.74 817.16 357.406 813.455 360.739 810.828C364.071 808.167 369.393 806.483 376.704 805.775L390.476 804.31V800.066C390.476 796.731 389.915 794.121 388.793 792.234C387.705 790.348 386.056 789.018 383.845 788.243C381.669 787.468 378.83 787.081 375.327 787.081C372.879 787.081 370.26 787.3 367.472 787.738C364.684 788.142 361.98 788.782 359.362 789.658V782.938C361.776 782.096 364.497 781.456 367.523 781.018C370.549 780.58 373.491 780.361 376.347 780.361ZM375.378 830.583C378.2 830.583 380.904 830.044 383.488 828.966C386.107 827.855 388.436 826.204 390.476 824.015V809.817L377.265 811.232C372.641 811.771 369.308 812.849 367.268 814.466C365.228 816.049 364.207 818.306 364.207 821.236C364.207 824.234 365.143 826.541 367.013 828.158C368.883 829.775 371.672 830.583 375.378 830.583Z" fill="#353048"/>
<path d="M433.256 837C426.659 837 420.453 836.124 414.639 834.373V754.391H423.004V787.182H423.514C425.486 785.06 427.9 783.392 430.757 782.18C433.613 780.967 436.776 780.361 440.244 780.361C444.597 780.361 448.456 781.304 451.823 783.19C455.189 785.077 457.859 788.041 459.831 792.083C461.803 796.125 462.789 801.278 462.789 807.544C462.789 817.346 460.307 824.705 455.342 829.623C450.412 834.541 443.05 837 433.256 837ZM434.021 830.28C440.788 830.28 445.855 828.512 449.222 824.975C452.588 821.438 454.271 815.88 454.271 808.302C454.271 800.824 452.809 795.485 449.885 792.285C446.96 789.085 442.914 787.485 437.745 787.485C434.854 787.485 432.134 788.024 429.584 789.102C427.033 790.146 424.84 791.746 423.004 793.902V828.815C426.268 829.792 429.941 830.28 434.021 830.28Z" fill="#353048"/>
<path d="M476.306 836.04V754.391H484.671V836.04H476.306Z" fill="#353048"/>
<path d="M544.718 811.333H506.718C506.956 818.002 508.724 822.836 512.023 825.834C515.321 828.798 520.32 830.28 527.019 830.28C531.576 830.28 536.54 829.489 541.913 827.905V834.625C536.54 836.208 531.253 837 526.05 837C516.8 837 509.846 834.71 505.188 830.129C500.563 825.514 498.251 818.339 498.251 808.605C498.251 802.441 499.186 797.253 501.056 793.043C502.96 788.832 505.681 785.666 509.217 783.544C512.754 781.422 517.004 780.361 521.969 780.361C529.314 780.361 534.942 782.769 538.853 787.586C542.763 792.369 544.718 799.443 544.718 808.807V811.333ZM521.918 786.323C517.055 786.323 513.332 787.872 510.748 790.971C508.197 794.07 506.854 798.988 506.718 805.725H536.761C536.625 798.988 535.316 794.07 532.834 790.971C530.351 787.872 526.713 786.323 521.918 786.323Z" fill="#353048"/>
<path d="M601.288 837C597.955 837 594.538 836.731 591.035 836.192C587.567 835.653 584.302 834.861 581.242 833.817V826.592C584.541 827.703 587.924 828.529 591.393 829.068C594.861 829.606 598.176 829.876 601.339 829.876C614.465 829.876 621.028 825.295 621.028 816.133C621.028 813.607 620.484 811.518 619.396 809.868C618.341 808.184 616.658 806.786 614.346 805.674C612.034 804.529 608.888 803.518 604.909 802.643L600.523 801.683C593.518 800.133 588.332 797.708 584.966 794.407C581.633 791.072 579.967 786.693 579.967 781.27C579.967 776.925 581.021 773.186 583.129 770.054C585.238 766.921 588.383 764.513 592.566 762.828C596.782 761.144 601.985 760.302 608.174 760.302C614.601 760.302 620.603 761.128 626.18 762.778V770.003C620.501 768.285 614.567 767.426 608.378 767.426C601.679 767.426 596.697 768.588 593.433 770.913C590.168 773.203 588.536 776.504 588.536 780.816C588.536 783.308 589.012 785.38 589.964 787.03C590.917 788.681 592.464 790.079 594.606 791.224C596.748 792.369 599.656 793.346 603.328 794.154L607.715 795.165C615.332 796.815 620.875 799.274 624.343 802.542C627.846 805.809 629.597 810.171 629.597 815.628C629.597 820.141 628.492 823.998 626.282 827.198C624.071 830.398 620.841 832.84 616.59 834.524C612.374 836.175 607.273 837 601.288 837Z" fill="#353048"/>
<path d="M665.458 837C657.603 837 651.465 834.659 647.045 829.977C642.624 825.295 640.414 818.188 640.414 808.655C640.414 799.19 642.624 792.116 647.045 787.434C651.465 782.719 657.603 780.361 665.458 780.361C673.382 780.361 679.519 782.702 683.872 787.384C688.259 792.032 690.452 799.123 690.452 808.655C690.452 814.988 689.432 820.276 687.391 824.52C685.351 828.731 682.461 831.863 678.72 833.918C674.98 835.973 670.559 837 665.458 837ZM665.458 830.28C670.763 830.28 674.827 828.596 677.649 825.228C680.505 821.859 681.934 816.369 681.934 808.756C681.934 801.043 680.523 795.502 677.7 792.133C674.878 788.765 670.797 787.081 665.458 787.081C660.12 787.081 656.022 788.765 653.166 792.133C650.343 795.468 648.932 800.942 648.932 808.554C648.932 816.268 650.343 821.826 653.166 825.228C656.022 828.596 660.12 830.28 665.458 830.28Z" fill="#353048"/>
<path d="M727.295 837C718.862 837 712.435 834.676 708.014 830.028C703.594 825.346 701.383 818.221 701.383 808.655C701.383 799.089 703.747 791.982 708.473 787.333C713.234 782.685 720.188 780.361 729.335 780.361C733.892 780.361 738.024 780.883 741.73 781.927V788.95C737.786 787.906 733.943 787.384 730.203 787.384C723.334 787.384 718.25 789.051 714.951 792.386C711.687 795.687 710.055 801.043 710.055 808.453C710.055 815.998 711.585 821.472 714.645 824.874C717.706 828.276 722.313 829.977 728.468 829.977C732.311 829.977 736.732 829.169 741.73 827.552V834.575C737.208 836.192 732.396 837 727.295 837Z" fill="#353048"/>
<path d="M752.761 836.04V781.22H761.178V836.04H752.761ZM756.995 769.397C755.125 769.397 753.68 768.942 752.659 768.033C751.673 767.123 751.18 765.86 751.18 764.243C751.18 762.593 751.673 761.313 752.659 760.403C753.68 759.494 755.125 759.039 756.995 759.039C758.865 759.039 760.293 759.494 761.28 760.403C762.3 761.313 762.81 762.593 762.81 764.243C762.81 765.86 762.3 767.123 761.28 768.033C760.293 768.942 758.865 769.397 756.995 769.397Z" fill="#353048"/>
<path d="M821.174 811.333H783.174C783.412 818.002 785.18 822.836 788.478 825.834C791.777 828.798 796.776 830.28 803.475 830.28C808.031 830.28 812.996 829.489 818.369 827.905V834.625C812.996 836.208 807.708 837 802.505 837C793.256 837 786.302 834.71 781.643 830.129C777.019 825.514 774.706 818.339 774.706 808.605C774.706 802.441 775.642 797.253 777.512 793.043C779.416 788.832 782.137 785.666 785.673 783.544C789.21 781.422 793.46 780.361 798.425 780.361C805.77 780.361 811.398 782.769 815.308 787.586C819.219 792.369 821.174 799.443 821.174 808.807V811.333ZM798.374 786.323C793.511 786.323 789.788 787.872 787.203 790.971C784.653 794.07 783.31 798.988 783.174 805.725H813.217C813.081 798.988 811.772 794.07 809.289 790.971C806.807 787.872 803.169 786.323 798.374 786.323Z" fill="#353048"/>
<path d="M857.736 829.876C859.674 829.876 862.14 829.573 865.132 828.966V835.939C861.97 836.646 858.892 837 855.9 837C849.677 837 844.933 835.451 841.669 832.352C838.404 829.219 836.772 824.453 836.772 818.053V788.041H825.856V781.22H836.772L838.2 761.262H845.137V781.22H864.265V788.041H845.137V816.689C845.137 821.404 846.174 824.79 848.249 826.844C850.323 828.865 853.485 829.876 857.736 829.876Z" fill="#353048"/>
<path d="M874.601 836.04V781.22H883.017V836.04H874.601ZM878.835 769.397C876.964 769.397 875.519 768.942 874.499 768.033C873.513 767.123 873.02 765.86 873.02 764.243C873.02 762.593 873.513 761.313 874.499 760.403C875.519 759.494 876.964 759.039 878.835 759.039C880.705 759.039 882.133 759.494 883.119 760.403C884.139 761.313 884.65 762.593 884.65 764.243C884.65 765.86 884.139 767.123 883.119 768.033C882.133 768.942 880.705 769.397 878.835 769.397Z" fill="#353048"/>
<path d="M943.014 811.333H905.013C905.252 818.002 907.02 822.836 910.318 825.834C913.617 828.798 918.615 830.28 925.314 830.28C929.871 830.28 934.836 829.489 940.208 827.905V834.625C934.836 836.208 929.548 837 924.345 837C915.096 837 908.142 834.71 903.483 830.129C898.859 825.514 896.546 818.339 896.546 808.605C896.546 802.441 897.481 797.253 899.352 793.043C901.256 788.832 903.976 785.666 907.513 783.544C911.049 781.422 915.3 780.361 920.265 780.361C927.61 780.361 933.237 782.769 937.148 787.586C941.059 792.369 943.014 799.443 943.014 808.807V811.333ZM920.214 786.323C915.351 786.323 911.627 787.872 909.043 790.971C906.493 794.07 905.15 798.988 905.013 805.725H935.057C934.921 798.988 933.612 794.07 931.129 790.971C928.647 787.872 925.008 786.323 920.214 786.323Z" fill="#353048"/>
<path d="M970.181 837C964.06 837 958.534 836.242 953.603 834.726V828.108C956.46 828.95 959.214 829.556 961.867 829.926C964.553 830.297 967.341 830.482 970.232 830.482C975.333 830.482 979.039 829.707 981.352 828.158C983.698 826.609 984.871 824.335 984.871 821.337C984.871 818.878 984.191 817.009 982.831 815.729C981.505 814.415 979.158 813.455 975.792 812.849L967.325 811.283C962.156 810.306 958.398 808.605 956.052 806.179C953.74 803.721 952.583 800.436 952.583 796.327C952.583 793.161 953.417 790.382 955.083 787.99C956.749 785.599 959.299 783.729 962.734 782.382C966.168 781.035 970.487 780.361 975.69 780.361C980.79 780.361 985.5 780.967 989.819 782.18V788.799C987.438 788.125 985.126 787.637 982.882 787.333C980.637 787.03 978.291 786.879 975.843 786.879C970.436 786.879 966.542 787.721 964.162 789.405C961.816 791.055 960.643 793.295 960.643 796.125C960.643 798.348 961.289 800.15 962.581 801.531C963.907 802.912 966.185 803.923 969.416 804.563L977.832 806.078C983.103 807.055 986.928 808.723 989.309 811.08C991.723 813.405 992.93 816.655 992.93 820.832C992.93 825.918 990.992 829.893 987.115 832.756C983.273 835.585 977.628 837 970.181 837Z" fill="#353048"/>
</svg>
